<?xml version="1.0" encoding="utf-8"?>
<!-- Generator: Adobe Illustrator 23.0.6, SVG Export Plug-In . SVG Version: 6.00 Build 0)  -->
<svg version="1.1" id="圖層_1" focusable="false" xmlns="http://www.w3.org/2000/svg" xmlns:xlink="http://www.w3.org/1999/xlink"
	 x="0px" y="0px" viewBox="0 0 448 512" style="enable-background:new 0 0 448 512;" xml:space="preserve">
<style type="text/css">
	.st0{fill:#999999;}
</style>
<path class="st0" d="M224,201.9L57.6,35.5c-4.7-4.7-12.3-4.7-17,0c-32.8,32.8-32.8,86,0,118.8l115.5,115.5l-24.9,24.9
	c-10.9-4.3-22.8-6.7-35.3-6.7c-53,0-96,43-96,96s43,96,96,96s96-43,96-96c0-4.5-0.3-9-0.9-13.4l32.9-32.9l32.9,32.9
	c-0.6,4.4-0.9,8.8-0.9,13.4c0,53,43,96,96,96s96-43,96-96s-43-96-96-96c-12.5,0-24.3,2.4-35.3,6.7l-24.9-24.9l115.5-115.5
	c32.8-32.8,32.8-86,0-118.8c-4.7-4.7-12.3-4.7-17,0L224,201.9z M128,384c0,17.6-14.4,32-32,32s-32-14.4-32-32c0-17.6,14.4-32,32-32
	S128,366.4,128,384z M384,384c0,17.6-14.4,32-32,32s-32-14.4-32-32c0-17.6,14.4-32,32-32S384,366.4,384,384z"/>
</svg>
